<svg width="22" height="22" viewBox="0 0 22 22" fill="none" xmlns="http://www.w3.org/2000/svg">
<path fill-rule="evenodd" clip-rule="evenodd" d="M19.8477 0.87868C18.6761 -0.292891 16.7766 -0.292895 15.605 0.87868L1.44744 15.0363C1.02864 15.4551 0.74317 15.9885 0.62702 16.5692L0.0399505 19.5046C-0.239937 20.904 0.993901 22.1379 2.39334 21.858L5.32868 21.2709C5.90945 21.1548 6.44285 20.8693 6.86165 20.4505L21.0192 6.29289C22.1908 5.12132 22.1908 3.22183 21.0192 2.05025L19.8477 0.87868ZM17.0192 2.29289C17.4098 1.90237 18.0429 1.90237 18.4335 2.29289L19.605 3.46447C19.9956 3.85499 19.9956 4.48815 19.605 4.87868L16.9334 7.55027L14.3477 4.96448L17.0192 2.29289ZM12.9334 6.3787L2.86165 16.4505C2.72205 16.5901 2.6269 16.7679 2.58818 16.9615L2.00111 19.8968L4.93645 19.3097C5.13004 19.271 5.30784 19.1759 5.44744 19.0363L15.5192 8.96448L12.9334 6.3787Z" fill="#6B6B6B"/>
</svg>
