<svg width="48" height="48" viewBox="0 0 48 48" fill="none" xmlns="http://www.w3.org/2000/svg">
<g clip-path="url(#clip0_282_3123)">
<path d="M12.1797 42.12C11.6492 42.12 11.1405 41.9093 10.7655 41.5342C10.3904 41.1591 10.1797 40.6504 10.1797 40.12L9.87967 10.8C9.85559 10.2047 9.94944 9.61049 10.1558 9.05158C10.3622 8.49267 10.677 7.98008 11.0822 7.54328C11.4874 7.10649 11.975 6.75411 12.5169 6.50642C13.0587 6.25872 13.6442 6.1206 14.2397 6.1L33.4197 6C34.0159 6.01041 34.6042 6.13818 35.1511 6.37602C35.6979 6.61385 36.1925 6.95708 36.6067 7.3861C37.0209 7.81513 37.3465 8.32154 37.5649 8.87642C37.7833 9.4313 37.8903 10.0238 37.8797 10.62L38.1597 39.94C38.1631 40.2905 38.0744 40.6357 37.9024 40.9411C37.7304 41.2464 37.4812 41.5013 37.1797 41.68C36.8756 41.8555 36.5307 41.9479 36.1797 41.9479C35.8286 41.9479 35.4837 41.8555 35.1797 41.68L23.7797 35.36L13.1997 41.82C12.8864 41.995 12.5378 42.0975 12.1797 42.12ZM23.6997 31.02C24.0472 31.0206 24.3897 31.1028 24.6997 31.26L34.1197 36.48L33.8797 10.58C33.8797 10.18 33.6197 9.9 33.4597 9.92L14.2597 10.1C14.0997 10.1 13.8797 10.36 13.8797 10.76L14.1197 36.56L22.6797 31.3C22.9906 31.122 23.3415 31.0257 23.6997 31.02Z" fill="black"/>
</g>
<defs>
<clipPath id="clip0_282_3123">
<rect width="48" height="48" fill="white"/>
</clipPath>
</defs>
</svg>
