<svg width="24" height="24" viewBox="0 0 24 24" fill="none" xmlns="http://www.w3.org/2000/svg">
<path d="M21.1156 12.004C21.0636 8.21089 18.7414 4.81432 15.1878 3.4587C11.6061 2.0937 7.38264 3.23417 4.96061 6.19339C2.5503 9.14042 2.18514 13.3864 4.14827 16.6723C6.10764 19.9512 9.94858 21.641 13.6897 20.9674C17.9553 20.2001 21.0087 16.3681 21.1123 12.1015C21.1151 12.0691 21.1162 12.0365 21.1156 12.004ZM5.58077 8.17386C7.16092 5.53104 10.3236 4.07792 13.3597 4.66057C16.6128 5.28354 19.0048 7.96386 19.3986 11.1762H14.9258C14.5386 9.8937 13.4258 8.9262 11.9905 8.9262C10.6006 8.9262 9.4053 9.89417 9.03217 11.1762H4.58186C4.69467 10.1151 5.03541 9.09099 5.58077 8.17386ZM13.4126 12.0045C13.3189 13.8209 10.5687 13.8514 10.5687 12.0045C10.5687 10.1576 13.3208 10.1871 13.4126 12.0045ZM14.5376 19.0259C11.5714 20.0895 8.20342 19.1595 6.20186 16.7257C5.29522 15.6138 4.73212 14.2619 4.58139 12.8351H9.02842C9.39921 14.119 10.6081 15.0851 11.9905 15.0851C13.4281 15.0851 14.5386 14.1157 14.9258 12.8351H19.4C19.0601 15.6092 17.2287 18.0617 14.5381 19.0259H14.5376Z" fill="#6B6B6B"/>
</svg>
