<svg width="24" height="24" viewBox="0 0 24 24" fill="none" xmlns="http://www.w3.org/2000/svg">
<path d="M21.1151 12.0043C21.0631 8.21113 18.7409 4.81457 15.1873 3.45894C11.6056 2.09394 7.38216 3.23441 4.96012 6.19363C2.54981 9.14066 2.18466 13.3866 4.14778 16.6725C6.10716 19.9514 9.94809 21.6413 13.6892 20.9677C17.9548 20.2003 21.0082 16.3683 21.1118 12.1018C21.1146 12.0693 21.1157 12.0368 21.1151 12.0043ZM5.58028 8.1741C7.16044 5.53129 10.3231 4.07816 13.3592 4.66082C16.6123 5.28379 19.0043 7.9641 19.3981 11.1764H14.9253C14.5381 9.89394 13.4253 8.92644 11.99 8.92644C10.6001 8.92644 9.40481 9.89441 9.03169 11.1764H4.58137C4.69418 10.1154 5.03492 9.09124 5.58028 8.1741ZM13.4122 12.0047C13.3184 13.8211 10.5682 13.8516 10.5682 12.0047C10.5682 10.1579 13.3203 10.1874 13.4122 12.0047ZM14.5372 19.0261C11.5709 20.0897 8.20294 19.1597 6.20137 16.726C5.29473 15.6141 4.73163 14.2621 4.58091 12.8354H9.02794C9.39872 14.1193 10.6076 15.0853 11.99 15.0853C13.4276 15.0853 14.5381 14.116 14.9253 12.8354H19.3995C19.0597 15.6094 17.2282 18.0619 14.5376 19.0261H14.5372Z" fill="#6B6B6B"/>
</svg>
