<svg width="48" height="48" viewBox="0 0 48 48" fill="none" xmlns="http://www.w3.org/2000/svg">
<path fill-rule="evenodd" clip-rule="evenodd" d="M5.6665 10.6665C5.6665 7.90509 7.90509 5.6665 10.6665 5.6665H27.3332C29.2203 5.6665 30.8633 6.71204 31.7145 8.25545L38.7315 10.1356C41.3988 10.8504 42.9817 13.592 42.267 16.2594L36.2278 38.7977C35.5132 41.465 32.7715 43.0478 30.1042 42.3332L17.664 38.9998H10.6665C7.90509 38.9998 5.6665 36.7613 5.6665 33.9998V10.6665ZM32.3332 33.9998V11.8722L37.8687 13.3554C38.7578 13.5936 39.2855 14.5075 39.0472 15.3966L33.0082 37.9348C32.7698 38.824 31.856 39.3517 30.9668 39.1133L29.1995 38.6398C31.0365 37.9003 32.3332 36.1015 32.3332 33.9998ZM10.6665 8.99984C9.74604 8.99984 8.99984 9.74604 8.99984 10.6665V33.9998C8.99984 34.9203 9.74604 35.6665 10.6665 35.6665H27.3332C28.2537 35.6665 28.9998 34.9203 28.9998 33.9998V10.6665C28.9998 9.74604 28.2537 8.99984 27.3332 8.99984H10.6665Z" fill="#393939" stroke="#393939" stroke-width="0.00024"/>
<path d="M30.9389 35.0205V10.1226L37.8777 12.1634L40.3267 14.2042L34.6124 38.2858L30.9389 41.5511L25.6328 38.2858L30.9389 35.0205Z" fill="#393939"/>
<path d="M25.9998 22.1167C25.9605 19.2519 24.2067 16.6867 21.5229 15.6628C18.8177 14.6319 15.628 15.4932 13.7987 17.7282C11.9784 19.954 11.7026 23.1607 13.1852 25.6424C14.665 28.1188 17.5659 29.3951 20.3914 28.8863C23.613 28.3068 25.9191 25.4127 25.9974 22.1903C25.9995 22.1658 26.0003 22.1413 25.9998 22.1167ZM14.2671 19.224C15.4605 17.228 17.8491 16.1305 20.1422 16.5705C22.5991 17.041 24.4057 19.0654 24.7031 21.4915H21.325C21.0325 20.5229 20.1921 19.7922 19.108 19.7922C18.0584 19.7922 17.1556 20.5232 16.8738 21.4915H13.5127C13.5979 20.6901 13.8552 19.9166 14.2671 19.224ZM20.1822 22.117C20.1114 23.4889 18.0343 23.5119 18.0343 22.117C18.0343 20.7222 20.1128 20.7445 20.1822 22.117ZM21.0318 27.42C18.7916 28.2233 16.2479 27.5209 14.7362 25.6828C14.0515 24.843 13.6262 23.8219 13.5123 22.7444H16.871C17.151 23.7141 18.064 24.4437 19.108 24.4437C20.1938 24.4437 21.0325 23.7116 21.325 22.7444H24.7041C24.4474 24.8395 23.0643 26.6917 21.0322 27.42H21.0318Z" fill="#393939"/>
</svg>
