<svg width="48" height="48" viewBox="0 0 48 48" fill="none" xmlns="http://www.w3.org/2000/svg">
<g opacity="0.6">
<path fill-rule="evenodd" clip-rule="evenodd" d="M4 9.43891C4 6.43509 6.43509 4 9.43891 4H27.5686C29.6214 4 31.4086 5.13731 32.3345 6.81621L39.9675 8.86144C42.869 9.63889 44.5907 12.6212 43.8133 15.5227L37.244 40.0395C36.4666 42.9409 33.4843 44.6627 30.5828 43.8853L17.0506 40.2594H9.43891C6.43509 40.2594 4 37.8244 4 34.8205V9.43891ZM33.0075 34.8205V10.7504L39.0289 12.3638C39.9961 12.623 40.5701 13.6171 40.3109 14.5843L33.7418 39.1009C33.4825 40.0681 32.4884 40.6421 31.5212 40.3828L29.5988 39.8678C31.597 39.0634 33.0075 37.1066 33.0075 34.8205ZM9.43891 7.62594C8.43764 7.62594 7.62594 8.43764 7.62594 9.43891V34.8205C7.62594 35.8218 8.43764 36.6334 9.43891 36.6334H27.5686C28.5699 36.6334 29.3816 35.8218 29.3816 34.8205V9.43891C29.3816 8.43764 28.5699 7.62594 27.5686 7.62594H9.43891Z" fill="#393939" stroke="#393939" stroke-width="0.00024"/>
<path d="M25.7699 21.8867C25.7306 19.0217 23.9766 16.4563 21.2926 15.4324C18.5873 14.4014 15.3973 15.2628 13.5679 17.4979C11.7474 19.7238 11.4716 22.9308 12.9543 25.4127C14.4343 27.8893 17.3353 29.1656 20.161 28.6569C23.3829 28.0773 25.6892 25.1829 25.7674 21.9604C25.7695 21.9359 25.7703 21.9113 25.7699 21.8867ZM14.0363 18.9938C15.2298 16.9976 17.6186 15.9001 19.9118 16.3402C22.3689 16.8107 24.1756 18.8352 24.473 21.2615H21.0947C20.8022 20.2928 19.9617 19.562 18.8776 19.562C17.8278 19.562 16.925 20.2931 16.6432 21.2615H13.2818C13.367 20.46 13.6244 19.6865 14.0363 18.9938ZM19.9518 21.8871C19.881 23.259 17.8038 23.282 17.8038 21.8871C17.8038 20.4921 19.8824 20.5144 19.9518 21.8871ZM20.8015 27.1904C18.5611 27.9937 16.0172 27.2913 14.5054 25.4531C13.8206 24.6132 13.3953 23.5921 13.2815 22.5145H16.6403C16.9204 23.4842 17.8335 24.2139 18.8776 24.2139C19.9635 24.2139 20.8022 23.4817 21.0947 22.5145H24.4741C24.2174 24.6097 22.8341 26.4621 20.8019 27.1904H20.8015Z" fill="#393939"/>
</g>
</svg>
