<svg width="48" height="48" viewBox="0 0 48 48" fill="none" xmlns="http://www.w3.org/2000/svg">
<g opacity="0.6">
<path d="M24.4001 13.1877L23.455 14.0973C23.7023 14.3542 24.0435 14.4993 24.4001 14.4993C24.7567 14.4993 25.0979 14.3542 25.3452 14.0973L24.4001 13.1877ZM19.8987 35.61C17.248 33.5205 14.3497 31.4799 12.0503 28.8908C9.79594 26.3522 8.22335 23.3902 8.22335 19.5473H5.6001C5.6001 24.2088 7.54218 27.7651 10.0889 30.6326C12.5906 33.4497 15.7797 35.7032 18.2747 37.6701L19.8987 35.61ZM8.22335 19.5473C8.22335 15.7858 10.3488 12.6314 13.2501 11.3052C16.0688 10.0168 19.856 10.358 23.455 14.0973L25.3452 12.2781C21.0747 7.8413 16.1178 7.11005 12.1596 8.91935C8.28406 10.6909 5.6001 14.8043 5.6001 19.5473H8.22335ZM18.2747 37.6701C19.1705 38.3763 20.1321 39.1294 21.1067 39.6988C22.081 40.268 23.1927 40.7308 24.4001 40.7308V38.1075C23.8587 38.1075 23.2216 37.8964 22.4302 37.4339C21.6392 36.9716 20.8186 36.3352 19.8987 35.61L18.2747 37.6701ZM30.5256 37.6701C33.0205 35.7032 36.2096 33.4497 38.7114 30.6326C41.258 27.7651 43.2001 24.2088 43.2001 19.5473H40.5768C40.5768 23.3902 39.0043 26.3522 36.7499 28.8908C34.4505 31.4799 31.5521 33.5205 28.9016 35.61L30.5256 37.6701ZM43.2001 19.5473C43.2001 14.8043 40.5162 10.6909 36.6406 8.91935C32.6824 7.11005 27.7255 7.8413 23.455 12.2781L25.3452 14.0973C28.9441 10.358 32.7314 10.0168 35.55 11.3052C38.4513 12.6314 40.5768 15.7858 40.5768 19.5473H43.2001ZM28.9016 35.61C27.9815 36.3352 27.161 36.9716 26.37 37.4339C25.5786 37.8964 24.9415 38.1075 24.4001 38.1075V40.7308C25.6075 40.7308 26.7192 40.268 27.6935 39.6988C28.6681 39.1294 29.6296 38.3763 30.5256 37.6701L28.9016 35.61Z" fill="#393939"/>
<path d="M19.0867 36.6401L19.8987 35.61M19.8987 35.61C17.248 33.5205 14.3497 31.4799 12.0503 28.8908C9.79594 26.3522 8.22335 23.3902 8.22335 19.5473M19.8987 35.61L18.2747 37.6701M19.8987 35.61C20.8186 36.3352 21.6392 36.9716 22.4302 37.4339C23.2216 37.8964 23.8587 38.1075 24.4001 38.1075M23.455 14.0973L24.4001 13.1877L25.3452 14.0973M23.455 14.0973C23.7023 14.3542 24.0435 14.4993 24.4001 14.4993C24.7567 14.4993 25.0979 14.3542 25.3452 14.0973M23.455 14.0973C19.856 10.358 16.0688 10.0168 13.2501 11.3052C10.3488 12.6314 8.22335 15.7858 8.22335 19.5473M23.455 14.0973L25.3452 12.2781C21.0747 7.8413 16.1178 7.11005 12.1596 8.91935C8.28406 10.6909 5.6001 14.8043 5.6001 19.5473M25.3452 14.0973L23.455 12.2781C27.7255 7.8413 32.6824 7.11005 36.6406 8.91935C40.5162 10.6909 43.2001 14.8043 43.2001 19.5473M25.3452 14.0973C28.9441 10.358 32.7314 10.0168 35.55 11.3052C38.4513 12.6314 40.5768 15.7858 40.5768 19.5473M29.7136 36.6401L30.5256 37.6701M30.5256 37.6701C33.0205 35.7032 36.2096 33.4497 38.7114 30.6326C41.258 27.7651 43.2001 24.2088 43.2001 19.5473M30.5256 37.6701L28.9016 35.61M30.5256 37.6701C29.6296 38.3763 28.6681 39.1294 27.6935 39.6988C26.7192 40.268 25.6075 40.7308 24.4001 40.7308M8.22335 19.5473H5.6001M5.6001 19.5473C5.6001 24.2088 7.54218 27.7651 10.0889 30.6326C12.5906 33.4497 15.7797 35.7032 18.2747 37.6701M18.2747 37.6701C19.1705 38.3763 20.1321 39.1294 21.1067 39.6988C22.081 40.268 23.1927 40.7308 24.4001 40.7308M24.4001 40.7308V38.1075M24.4001 38.1075C24.9415 38.1075 25.5786 37.8964 26.37 37.4339C27.161 36.9716 27.9815 36.3352 28.9016 35.61M43.2001 19.5473H40.5768M40.5768 19.5473C40.5768 23.3902 39.0043 26.3522 36.7499 28.8908C34.4505 31.4799 31.5521 33.5205 28.9016 35.61" stroke="#393939"/>
</g>
</svg>
