<svg width="48" height="48" viewBox="0 0 48 48" fill="none" xmlns="http://www.w3.org/2000/svg">
<path fill-rule="evenodd" clip-rule="evenodd" d="M8.83072 17.3164C8 18.834 8 20.6648 8 24.3262V26.76C8 33.0013 8 36.1221 9.87451 38.061C11.749 40 14.766 40 20.8 40H27.2C33.2339 40 36.251 40 38.1254 38.061C40 36.1221 40 33.0013 40 26.76V24.3262C40 20.6648 40 18.834 39.1693 17.3164C38.3386 15.7987 36.821 14.8568 33.7856 12.973L30.5856 10.987C27.377 8.99566 25.7726 8 24 8C22.2274 8 20.623 8.99566 17.4144 10.987L14.2144 12.973C11.1791 14.8568 9.66144 15.7987 8.83072 17.3164ZM19.2 32.4C18.5373 32.4 18 32.9373 18 33.6C18 34.2627 18.5373 34.8 19.2 34.8H28.8C29.4627 34.8 30 34.2627 30 33.6C30 32.9373 29.4627 32.4 28.8 32.4H19.2Z" fill="#393939"/>
</svg>
