<svg width="48" height="48" viewBox="0 0 48 48" fill="none" xmlns="http://www.w3.org/2000/svg">
<g opacity="0.6">
<g clip-path="url(#clip0_178_367)">
<path d="M8 24.3262C8 20.6648 8 18.834 8.83072 17.3164C9.66144 15.7987 11.1791 14.8568 14.2144 12.973L17.4144 10.987C20.623 8.99566 22.2274 8 24 8C25.7726 8 27.377 8.99566 30.5856 10.987L33.7856 12.973C36.821 14.8568 38.3386 15.7987 39.1693 17.3164C40 18.834 40 20.6648 40 24.3262V26.76C40 33.0013 40 36.1221 38.1254 38.061C36.251 40 33.2339 40 27.2 40H20.8C14.766 40 11.749 40 9.87451 38.061C8 36.1221 8 33.0013 8 26.76V24.3262Z" stroke="#393939" stroke-width="4"/>
<path d="M28.7997 33.6001H19.1997" stroke="#393939" stroke-width="4" stroke-linecap="round"/>
</g>
</g>
<defs>
<clipPath id="clip0_178_367">
<rect width="48" height="48" rx="12" fill="white"/>
</clipPath>
</defs>
</svg>
